<svg width="26" height="26" viewBox="0 0 26 26" fill="none" xmlns="http://www.w3.org/2000/svg">
<path d="M23.696 0.25293H2.05002C1.57006 0.255839 1.11088 0.44916 0.773374 0.790421C0.435864 1.13168 0.247628 1.59297 0.250023 2.07293V23.6829C0.247628 24.1629 0.435864 24.6242 0.773374 24.9654C1.11088 25.3067 1.57006 25.5 2.05002 25.5029H23.696C24.1756 25.4987 24.634 25.305 24.9712 24.964C25.3084 24.623 25.4971 24.1625 25.496 23.6829V2.07293C25.4971 1.59336 25.3084 1.13284 24.9712 0.791867C24.634 0.450894 24.1756 0.257154 23.696 0.25293ZM7.88102 21.8959H4.13902V9.84593H7.88702V21.8959H7.88102ZM6.01002 8.20293C5.58084 8.20293 5.16129 8.07566 4.80443 7.83722C4.44758 7.59878 4.16945 7.25987 4.0052 6.86335C3.84096 6.46684 3.79799 6.03052 3.88172 5.60958C3.96545 5.18864 4.17212 4.80199 4.4756 4.49851C4.77908 4.19503 5.16574 3.98836 5.58668 3.90463C6.00762 3.8209 6.44393 3.86387 6.84045 4.02811C7.23696 4.19235 7.57587 4.47049 7.81431 4.82734C8.05275 5.1842 8.18002 5.60374 8.18002 6.03293C8.17976 6.60837 7.95105 7.16016 7.54415 7.56706C7.13725 7.97396 6.58546 8.20266 6.01002 8.20293ZM21.91 21.9029H18.167V16.0339C18.167 14.6339 18.139 12.8339 16.223 12.8339C14.273 12.8339 13.974 14.3559 13.974 15.9279V21.8909H10.232V9.84593H13.822V11.4919H13.873C14.2333 10.878 14.7532 10.3731 15.3773 10.0308C16.0015 9.68857 16.7067 9.52169 17.418 9.54793C21.206 9.54793 21.91 12.0479 21.91 15.2909V21.9029Z" fill="#34A853"/>
</svg>
